<svg width="686" height="765" viewBox="0 0 686 765" fill="none" xmlns="http://www.w3.org/2000/svg">
<g clip-path="url(#clip0_4_2)">
<path fill-rule="evenodd" clip-rule="evenodd" d="M472.288 589C491.704 625.885 527.892 650.979 569.242 656.234C565.742 708.731 522.22 749.571 469.607 749.73C416.994 749.889 373.226 709.314 369.408 656.839C413.066 653.367 451.899 627.761 472.288 589Z" fill="black"/>
<path fill-rule="evenodd" clip-rule="evenodd" d="M342.301 402.949C305.248 396.569 274.884 369.983 263.667 334.097C252.45 298.211 262.267 259.066 289.09 232.719C315.914 206.372 355.228 197.258 390.907 209.117C426.586 220.975 452.624 251.81 458.339 288.972C397.342 294.244 348.665 342.056 342.301 402.949Z" fill="black"/>
<path fill-rule="evenodd" clip-rule="evenodd" d="M596.386 403.763C590.612 344.736 544.971 297.447 486.186 289.583C491.754 251.802 518.316 220.473 554.676 208.799C591.036 197.125 630.87 207.138 657.391 234.616C683.911 262.094 692.505 302.258 679.549 338.182C666.593 374.105 634.341 399.539 596.386 403.763Z" fill="black"/>
<path fill-rule="evenodd" clip-rule="evenodd" d="M342.634 432C350.288 491.769 398.668 538.061 458.716 543.071C454.069 580.674 428.605 612.437 392.914 625.153C357.223 637.868 317.413 629.359 290.037 603.165C262.662 576.971 252.405 537.574 263.534 501.357C274.663 465.14 305.273 438.301 342.634 432Z" fill="black"/>
<path fill-rule="evenodd" clip-rule="evenodd" d="M485.809 543.275C543.657 535.709 589.031 489.915 596.064 432C634.337 436.124 666.863 461.809 679.748 498.082C692.633 534.355 683.599 574.802 656.505 602.146C629.411 629.491 589.049 638.898 552.659 626.347C516.269 613.797 490.285 581.508 485.809 543.275Z" fill="black"/>
<path fill-rule="evenodd" clip-rule="evenodd" d="M569.49 416.207C569.48 456.727 545.067 493.254 507.63 508.754C470.193 524.255 427.105 515.676 398.456 487.022C369.806 458.367 361.236 415.278 376.743 377.843C392.25 340.409 428.781 316 469.301 316C524.638 316.01 569.494 360.87 569.49 416.207Z" fill="black"/>
<path fill-rule="evenodd" clip-rule="evenodd" d="M472.295 245.003C416.748 149.175 305.544 162.752 246.601 210.866C173.494 270.542 178.191 380.576 240.714 484.073C221.188 533.024 233.706 588.941 272.238 624.895C271.248 688.436 239.988 746.889 164.86 761.569C65.5744 780.97 24.6184 694.275 0 634L71.186 612.9C71.186 612.9 86.644 698.775 150.286 692.011C213.928 685.247 214.959 607.358 179.286 528.511C143.613 449.664 41.161 293.676 220.807 138.358C189.337 110.717 190.109 39.9454 250.198 0L295.291 30.1192C294.88 29.7185 243.977 97.105 300.564 101.319C335.593 100.492 456.88 93.0063 502.318 207.415C489.95 217.961 479.881 230.629 472.295 245.003Z" fill="black"/>
</g>
<defs>
<clipPath id="clip0_4_2">
<rect width="686" height="765" fill="white"/>
</clipPath>
</defs>
</svg>
